<?xml version="1.0" standalone="no"?>
<!DOCTYPE svg PUBLIC "-//W3C//DTD SVG 20010904//EN"
 "http://www.w3.org/TR/2001/REC-SVG-20010904/DTD/svg10.dtd">
<svg version="1.0" xmlns="http://www.w3.org/2000/svg"
 width="320.000000pt" height="320.000000pt" viewBox="0 0 320.000000 320.000000"
 preserveAspectRatio="xMidYMid meet">
<metadata>
Created by potrace 1.15, written by Peter Selinger 2001-2017
</metadata>
<g transform="translate(0.000000,320.000000) scale(0.100000,-0.100000)"
fill="#000000" stroke="none">
<path d="M6 3188 c5 -8 248 -302 540 -654 414 -497 566 -672 684 -789 135
-132 150 -151 134 -160 -42 -23 -327 -322 -440 -461 -66 -82 -300 -364 -518
-627 -219 -264 -395 -481 -393 -484 3 -2 286 228 629 512 444 369 669 563 783
675 114 112 166 157 179 155 11 -2 90 -73 175 -158 86 -85 248 -231 361 -324
113 -93 392 -324 620 -514 228 -190 421 -349 429 -353 25 -16 5 9 -298 374
-163 195 -396 477 -519 625 -127 154 -293 340 -385 433 l-161 163 166 167 c99
100 256 276 389 437 123 149 355 429 517 623 161 195 291 356 289 359 -3 2
-295 -236 -649 -530 -492 -409 -678 -571 -792 -686 -82 -83 -150 -151 -151
-151 -1 0 -78 77 -171 171 -103 104 -261 248 -404 367 -557 465 -996 828
-1009 836 -10 7 -11 5 -5 -6z"/>
</g>
</svg>
