<?xml version="1.0" standalone="no"?>
<!DOCTYPE svg PUBLIC "-//W3C//DTD SVG 20010904//EN"
 "http://www.w3.org/TR/2001/REC-SVG-20010904/DTD/svg10.dtd">
<svg version="1.0" xmlns="http://www.w3.org/2000/svg"
 width="782.000000pt" height="782.000000pt" viewBox="0 0 782.000000 782.000000"
 preserveAspectRatio="xMidYMid meet">
<metadata>
Created by potrace 1.15, written by Peter Selinger 2001-2017
</metadata>
<g transform="translate(0.000000,782.000000) scale(0.100000,-0.100000)"
fill="#000000" stroke="none">
<path d="M3900 7809 c0 -6 -7 -82 -15 -168 -8 -86 -74 -788 -145 -1561 -169
-1823 -160 -1728 -168 -1780 l-7 -45 -100 -13 c-55 -7 -658 -65 -1340 -127
-1916 -177 -2119 -196 -2124 -201 -2 -2 -2 -6 0 -8 2 -3 299 -32 659 -65 360
-34 873 -81 1140 -106 1081 -101 1767 -168 1776 -174 1 -1 5 -47 9 -103 7
-103 49 -575 105 -1173 16 -176 55 -590 85 -920 103 -1111 126 -1360 131
-1364 2 -2 6 -2 9 0 2 3 20 178 40 389 305 3302 292 3167 309 3173 30 12 295
38 1706 167 1784 165 1844 170 1849 176 12 12 65 7 -1739 174 -1474 137 -1728
161 -1755 166 -75 13 -73 12 -78 56 -5 53 -101 1069 -162 1723 -25 270 -72
779 -105 1133 -33 353 -60 647 -60 652 0 6 -4 10 -10 10 -5 0 -10 -5 -10 -11z"/>
</g>
</svg>
