<svg xmlns="http://www.w3.org/2000/svg" xmlns:xlink="http://www.w3.org/1999/xlink" id="svg" version="1.1"
            width="400" height="263.258785942492" viewBox="0, 0, 400,263.258785942492">
            <g id="svgg">
                <path id="path0"
                    d="M238.169 11.062 C 236.854 11.195,234.891 12.578,234.891 13.373 C 234.891 13.530,234.654 13.733,234.365 13.825 C 234.075 13.917,233.838 14.094,233.838 14.218 C 233.838 14.605,230.846 17.501,230.107 17.828 C 229.268 18.199,223.071 18.274,222.195 17.923 C 221.864 17.790,221.060 17.170,220.408 16.544 L 219.223 15.405 197.051 15.405 C 173.157 15.405,173.346 15.394,174.965 16.685 L 175.726 17.292 196.935 17.343 C 215.202 17.386,218.203 17.447,218.572 17.782 C 218.808 17.995,219.140 18.170,219.310 18.170 C 219.479 18.170,219.618 18.327,219.618 18.518 C 219.618 19.700,221.616 20.276,225.711 20.276 C 230.459 20.276,230.477 20.270,233.589 17.142 C 234.827 15.897,236.339 14.434,236.947 13.891 L 238.053 12.903 263.807 12.903 L 289.561 12.903 291.156 14.440 C 292.034 15.285,292.798 16.085,292.854 16.217 C 292.910 16.350,293.436 16.784,294.023 17.182 L 295.091 17.907 315.500 17.907 C 337.887 17.907,337.357 17.944,336.170 16.463 L 335.541 15.678 315.819 15.759 C 293.315 15.851,295.474 16.088,292.627 13.216 C 291.238 11.814,290.486 11.255,289.862 11.159 C 288.716 10.983,239.865 10.891,238.169 11.062 M236.208 13.386 C 236.208 13.729,235.895 13.957,235.640 13.800 C 235.368 13.631,235.603 13.167,235.960 13.167 C 236.097 13.167,236.208 13.265,236.208 13.386 M53.901 15.091 C 53.584 15.209,46.422 22.226,37.986 30.685 L 22.646 46.065 22.646 56.925 L 22.646 67.785 25.280 70.373 C 26.728 71.796,27.913 73.075,27.913 73.215 C 27.913 73.355,28.081 73.469,28.286 73.469 C 28.491 73.469,28.699 73.584,28.747 73.724 C 28.795 73.865,29.753 74.920,30.876 76.070 L 32.916 78.161 32.916 98.048 C 32.916 118.925,32.925 118.762,31.844 118.762 C 31.710 118.762,31.600 118.932,31.600 119.140 C 31.600 119.347,31.363 119.592,31.073 119.684 C 30.783 119.776,30.546 119.937,30.546 120.043 C 30.546 120.357,28.504 122.449,28.197 122.449 C 28.041 122.449,27.913 122.566,27.913 122.709 C 27.913 122.852,26.728 124.145,25.280 125.583 L 22.647 128.198 22.645 169.577 C 22.644 194.161,22.741 211.137,22.884 211.403 C 23.017 211.649,25.047 213.746,27.394 216.063 C 29.742 218.381,31.975 220.620,32.356 221.039 C 32.736 221.458,35.520 224.243,38.542 227.227 C 41.564 230.211,44.171 232.802,44.335 232.985 C 45.865 234.680,53.003 241.727,53.720 242.250 L 54.641 242.923 81.369 242.923 L 108.097 242.923 109.217 242.196 C 109.832 241.795,110.336 241.292,110.336 241.076 C 110.336 240.861,110.462 240.685,110.617 240.685 C 110.947 240.685,112.706 238.875,112.706 238.535 C 112.706 238.407,113.002 238.189,113.364 238.051 C 113.726 237.914,114.022 237.617,114.022 237.391 C 114.022 237.166,114.227 236.903,114.477 236.807 C 115.060 236.583,116.656 234.994,116.656 234.637 C 116.656 234.451,130.933 234.365,161.879 234.365 L 207.101 234.365 208.995 236.340 C 210.036 237.426,210.947 238.315,211.020 238.315 C 211.388 238.315,212.695 239.911,212.450 240.062 C 212.297 240.157,203.725 240.216,193.401 240.195 C 182.508 240.172,174.372 240.257,174.017 240.397 C 173.271 240.692,168.031 245.058,166.517 246.647 L 165.424 247.795 151.187 247.795 C 135.375 247.795,136.110 247.709,136.559 249.501 C 136.676 249.966,136.619 250.165,136.368 250.167 C 98.956 250.383,38.897 250.098,38.445 249.702 C 37.089 248.515,33.180 244.526,33.180 244.329 C 33.180 244.208,33.059 244.108,32.911 244.108 C 32.615 244.108,28.900 240.377,28.257 239.434 C 28.034 239.108,27.760 238.841,27.647 238.841 C 27.326 238.841,25.929 237.459,25.569 236.785 C 25.111 235.927,23.568 236.045,23.568 236.938 C 23.568 237.620,37.064 251.369,38.131 251.775 C 38.482 251.908,69.622 252.007,110.846 252.006 L 182.947 252.005 183.968 251.219 C 185.331 250.172,185.371 250.136,186.475 248.953 C 187.002 248.388,187.950 247.452,188.582 246.873 L 189.730 245.820 196.810 245.799 C 203.486 245.780,203.911 245.750,204.241 245.272 C 204.433 244.994,204.712 244.648,204.860 244.503 C 205.008 244.358,205.397 243.981,205.725 243.664 L 206.320 243.088 289.352 242.965 C 368.925 242.848,372.408 242.823,372.960 242.367 C 373.276 242.105,374.260 241.175,375.147 240.300 C 376.033 239.426,378.314 237.182,380.216 235.315 L 383.673 231.920 383.697 222.807 C 383.710 217.794,383.753 209.131,383.792 203.555 C 383.878 191.264,383.786 189.315,383.106 189.137 C 382.839 189.068,382.620 188.915,382.620 188.799 C 382.620 188.476,380.593 186.438,380.271 186.438 C 380.115 186.438,379.987 186.324,379.987 186.184 C 379.987 185.789,378.075 183.805,377.694 183.805 C 377.507 183.805,377.354 183.576,377.354 183.296 C 377.354 183.016,377.127 182.715,376.850 182.628 C 376.574 182.540,376.156 182.176,375.923 181.820 C 375.689 181.463,375.323 181.172,375.109 181.172 C 374.895 181.172,374.720 181.009,374.720 180.809 C 374.720 180.609,374.487 180.283,374.202 180.085 C 373.691 179.728,373.683 179.124,373.610 133.864 L 373.535 88.004 374.259 87.333 C 374.658 86.963,374.984 86.545,374.984 86.403 C 374.984 86.261,375.214 86.071,375.497 85.982 C 375.779 85.892,376.079 85.601,376.164 85.334 C 376.248 85.068,376.551 84.789,376.836 84.714 C 377.120 84.640,377.354 84.390,377.354 84.159 C 377.354 83.928,377.462 83.739,377.595 83.739 C 377.941 83.739,379.987 81.730,379.987 81.390 C 379.987 81.234,380.095 81.106,380.228 81.106 C 380.586 81.106,382.620 79.148,382.620 78.804 C 382.620 78.641,382.857 78.433,383.147 78.341 C 383.977 78.078,383.977 36.007,383.147 35.489 C 382.857 35.308,382.620 35.007,382.620 34.820 C 382.620 34.633,382.415 34.401,382.165 34.305 C 381.914 34.209,379.721 32.109,377.291 29.639 L 372.873 25.148 271.775 25.207 L 170.677 25.265 166.215 20.862 C 160.886 15.602,160.808 15.537,159.956 15.537 C 159.587 15.537,158.788 15.416,158.181 15.268 C 156.839 14.941,54.775 14.768,53.901 15.091 M158.182 15.936 C 158.696 16.151,159.431 16.327,159.816 16.327 C 160.785 16.327,161.043 16.539,165.835 21.275 L 170.080 25.471 218.351 25.671 C 244.901 25.781,290.450 25.827,319.573 25.773 L 372.523 25.675 373.785 26.894 C 374.479 27.565,375.149 28.216,375.273 28.342 C 375.398 28.468,377.220 30.320,379.323 32.458 L 383.147 36.344 383.156 47.863 C 383.181 76.636,383.167 77.492,382.676 77.962 C 382.428 78.201,381.819 78.887,381.322 79.487 C 380.826 80.088,380.263 80.579,380.072 80.579 C 379.880 80.579,379.724 80.668,379.724 80.777 C 379.724 81.017,377.741 83.213,377.524 83.213 C 377.440 83.213,376.949 83.657,376.433 84.200 C 375.917 84.743,374.935 85.754,374.252 86.447 L 373.009 87.706 373.009 133.736 L 373.009 179.766 378.078 184.868 C 381.862 188.676,383.154 190.139,383.176 190.639 C 383.421 196.327,383.090 231.119,382.787 231.576 C 381.336 233.762,372.762 241.723,371.684 241.885 C 370.128 242.118,213.986 241.869,213.604 241.632 C 213.436 241.529,213.297 241.065,213.295 240.603 C 213.292 239.743,208.388 234.492,207.145 234.018 C 206.799 233.887,129.072 233.724,117.622 233.831 C 117.017 233.837,116.135 234.580,112.926 237.788 C 110.752 239.961,108.836 241.749,108.668 241.762 C 108.499 241.775,97.103 241.774,83.344 241.760 C 69.585 241.745,57.338 241.735,56.129 241.736 L 53.930 241.738 38.871 226.662 C 30.589 218.371,23.660 211.385,23.472 211.139 C 23.196 210.777,23.136 202.864,23.161 169.555 L 23.190 128.418 23.840 127.816 C 24.197 127.485,24.490 127.090,24.490 126.938 C 24.490 126.786,24.604 126.662,24.745 126.662 C 24.885 126.662,26.870 124.796,29.155 122.515 L 33.311 118.367 33.311 97.959 L 33.311 77.551 28.242 72.497 L 23.173 67.444 23.145 62.754 C 23.130 60.175,23.124 55.476,23.133 52.312 L 23.149 46.560 24.938 44.707 C 28.195 41.336,32.780 36.866,32.981 36.866 C 33.091 36.866,33.192 36.718,33.206 36.537 C 33.221 36.356,34.038 35.497,35.023 34.628 C 36.008 33.759,36.834 32.930,36.859 32.785 C 36.884 32.640,37.480 32.047,38.183 31.468 C 38.886 30.889,39.470 30.346,39.481 30.263 C 39.510 30.025,47.854 21.749,48.171 21.643 C 48.326 21.592,48.453 21.448,48.453 21.324 C 48.453 21.201,49.704 19.853,51.232 18.330 L 54.011 15.561 55.643 15.483 C 62.353 15.162,157.334 15.582,158.182 15.936 M263.924 16.093 C 263.453 16.395,263.068 16.766,263.068 16.917 C 263.068 17.069,262.822 17.442,262.521 17.747 C 261.622 18.658,260.434 20.325,260.434 20.677 C 260.434 20.858,260.138 21.200,259.776 21.437 C 258.791 22.083,259.455 24.437,260.449 23.823 C 260.591 23.735,261.572 23.803,262.629 23.973 C 264.554 24.284,267.281 23.640,267.281 22.876 C 267.281 22.748,267.577 22.385,267.939 22.071 C 268.302 21.756,268.598 21.387,268.598 21.251 C 268.598 21.115,268.953 20.599,269.388 20.105 C 269.822 19.610,270.178 19.060,270.178 18.882 C 270.178 18.705,270.415 18.412,270.704 18.231 C 271.423 17.782,271.434 16.190,270.722 15.809 C 269.726 15.276,264.884 15.479,263.924 16.093 M274.493 16.392 C 274.058 16.863,273.294 17.816,272.795 18.509 C 272.297 19.202,271.445 20.345,270.902 21.048 C 269.498 22.866,270.128 24.013,272.479 23.921 C 273.050 23.898,273.625 23.946,273.757 24.026 C 274.140 24.259,277.100 23.710,277.749 23.285 C 278.284 22.935,279.246 21.667,280.108 20.177 C 280.283 19.875,280.579 19.505,280.766 19.356 C 283.623 17.081,282.497 15.537,277.981 15.537 L 275.284 15.537 274.493 16.392 M242.559 16.392 C 242.064 16.520,241.582 16.945,241.210 17.578 C 240.891 18.121,240.465 18.660,240.262 18.775 C 240.060 18.891,239.895 19.189,239.895 19.436 C 239.895 19.684,239.658 20.034,239.368 20.215 C 239.078 20.396,238.841 20.684,238.841 20.854 C 238.841 21.025,238.579 21.444,238.258 21.786 C 236.998 23.126,238.621 23.828,242.520 23.630 C 244.560 23.527,245.062 23.418,245.285 23.030 C 245.434 22.769,245.879 22.207,246.272 21.780 C 246.666 21.354,247.068 20.752,247.166 20.443 C 247.264 20.134,247.563 19.727,247.832 19.537 C 248.101 19.348,248.321 19.019,248.321 18.805 C 248.321 18.591,248.502 18.347,248.724 18.262 C 251.990 17.009,246.549 15.358,242.559 16.392 M253.720 16.256 C 253.239 16.376,251.481 17.963,251.481 18.276 C 251.481 18.349,250.889 19.202,250.165 20.170 C 247.895 23.207,248.405 23.874,252.781 23.591 C 255.546 23.413,257.275 22.614,257.275 21.514 C 257.275 21.382,257.541 20.945,257.867 20.543 C 260.251 17.601,260.376 17.322,259.638 16.584 C 259.124 16.069,255.313 15.858,253.720 16.256 M248.389 16.919 C 248.774 17.213,248.667 17.457,247.370 19.223 C 246.573 20.309,245.720 21.522,245.475 21.918 C 244.886 22.870,243.924 23.173,241.486 23.173 C 238.880 23.173,238.285 22.822,238.998 21.703 C 239.954 20.203,242.545 16.891,242.863 16.762 C 243.579 16.472,247.967 16.597,248.389 16.919 M259.330 17.174 C 259.424 17.667,257.447 20.566,255.923 22.168 L 254.967 23.173 252.616 23.173 C 249.363 23.173,249.030 22.904,250.205 21.226 C 250.690 20.534,251.264 19.706,251.481 19.387 C 251.698 19.067,252.284 18.304,252.783 17.690 L 253.690 16.573 256.466 16.647 C 258.846 16.711,259.256 16.786,259.330 17.174 M270.658 17.203 C 270.711 17.478,270.487 17.739,270.058 17.902 C 269.682 18.045,269.277 18.424,269.159 18.743 C 268.947 19.316,268.941 19.314,268.772 18.640 C 268.677 18.263,268.530 17.773,268.444 17.549 C 268.332 17.257,268.533 17.073,269.167 16.892 C 270.253 16.581,270.549 16.643,270.658 17.203 M280.959 16.838 C 281.423 17.132,280.906 18.542,280.397 18.372 C 279.798 18.173,279.536 17.449,279.903 17.007 C 280.300 16.528,280.435 16.506,280.959 16.838 M275.995 17.248 C 275.993 17.393,275.750 17.549,275.455 17.596 C 274.925 17.679,274.742 17.380,275.102 17.020 C 275.358 16.764,276.000 16.928,275.995 17.248 M265.174 17.303 C 264.957 17.383,264.572 17.629,264.319 17.850 C 263.898 18.216,263.858 18.202,263.858 17.684 C 263.858 17.215,264.006 17.120,264.714 17.137 C 265.184 17.149,265.392 17.223,265.174 17.303 M274.650 18.383 C 274.638 18.958,274.123 19.348,273.879 18.969 C 273.720 18.721,273.731 18.462,273.909 18.247 C 274.178 17.923,274.659 18.011,274.650 18.383 M263.397 18.608 C 263.216 18.681,263.068 19.027,263.068 19.377 C 263.068 19.786,262.917 20.013,262.645 20.013 C 262.367 20.013,262.276 19.870,262.381 19.597 C 262.469 19.368,262.541 19.012,262.541 18.807 C 262.541 18.589,262.788 18.442,263.134 18.454 C 263.460 18.465,263.578 18.535,263.397 18.608 M279.658 19.618 C 279.658 20.070,279.219 20.362,278.867 20.144 C 278.692 20.036,278.696 19.807,278.880 19.463 C 279.175 18.913,279.658 19.009,279.658 19.618 M273.451 19.720 C 273.530 19.848,273.429 20.091,273.227 20.259 C 272.816 20.600,272.396 20.209,272.679 19.750 C 272.881 19.424,273.259 19.409,273.451 19.720 M268.095 20.474 C 267.989 20.872,267.703 21.236,267.461 21.283 C 267.161 21.341,267.062 21.235,267.150 20.954 C 267.222 20.726,267.337 20.362,267.405 20.145 C 267.645 19.373,268.305 19.688,268.095 20.474 M286.574 20.220 C 283.847 20.296,283.008 20.652,283.560 21.502 C 284.115 22.356,284.756 22.369,327.994 22.402 C 359.320 22.426,371.310 22.517,371.803 22.732 C 372.588 23.075,373.535 23.937,378.007 28.374 C 379.795 30.148,381.431 31.600,381.643 31.600 C 382.741 31.600,382.947 29.563,381.896 29.101 C 381.570 28.959,381.303 28.689,381.303 28.503 C 381.303 28.317,381.007 28.030,380.645 27.865 C 380.283 27.700,379.987 27.404,379.987 27.207 C 379.987 27.010,379.691 26.714,379.329 26.549 C 378.966 26.384,378.670 26.087,378.670 25.889 C 378.670 25.692,378.374 25.417,378.012 25.280 C 377.650 25.142,377.354 24.902,377.354 24.747 C 377.354 24.387,375.675 22.646,375.328 22.646 C 375.185 22.646,374.933 22.350,374.768 21.988 C 374.603 21.626,374.335 21.330,374.171 21.330 C 374.008 21.330,373.655 21.051,373.387 20.710 L 372.900 20.091 331.085 20.118 C 308.086 20.133,288.057 20.179,286.574 20.220 M278.341 21.051 C 278.341 21.652,277.926 21.987,277.678 21.585 C 277.456 21.227,277.714 20.540,278.069 20.540 C 278.219 20.540,278.341 20.770,278.341 21.051 M261.822 21.264 C 261.895 21.517,262.037 21.925,262.138 22.170 C 262.285 22.524,262.130 22.650,261.380 22.791 C 259.716 23.103,259.413 22.762,260.454 21.751 C 261.528 20.706,261.650 20.663,261.822 21.264 M372.877 21.330 C 372.877 21.637,373.052 21.856,373.298 21.856 C 373.530 21.856,374.588 22.745,375.650 23.831 C 376.712 24.918,377.707 25.806,377.862 25.806 C 378.017 25.806,378.144 25.987,378.144 26.207 C 378.144 26.427,378.440 26.743,378.802 26.908 C 379.164 27.073,379.460 27.369,379.460 27.567 C 379.460 27.764,379.746 28.035,380.096 28.168 C 380.446 28.301,380.807 28.647,380.899 28.938 C 380.992 29.228,381.298 29.539,381.580 29.629 C 382.153 29.811,382.199 29.972,381.840 30.540 C 381.591 30.934,380.499 30.221,379.894 29.269 C 379.769 29.074,379.430 28.718,379.140 28.479 C 378.586 28.022,378.396 27.835,375.261 24.643 C 374.183 23.545,373.205 22.646,373.089 22.646 C 372.972 22.646,372.877 22.484,372.877 22.286 C 372.877 21.625,371.165 21.599,328.066 21.596 C 286.793 21.593,284.224 21.560,284.546 21.039 C 284.900 20.466,372.877 20.756,372.877 21.330 M106.452 21.593 L 57.933 21.725 43.622 36.076 L 29.311 50.428 29.428 52.406 C 29.542 54.345,28.699 56.616,27.865 56.616 C 27.745 56.616,26.936 57.338,26.068 58.219 L 24.490 59.822 24.490 63.346 L 24.490 66.870 29.625 71.965 L 34.760 77.060 34.760 97.932 L 34.760 118.804 29.625 123.974 L 24.490 129.144 24.490 158.943 L 24.490 188.742 26.531 190.863 C 27.653 192.030,28.735 193.182,28.934 193.423 C 29.223 193.772,29.293 195.289,29.280 200.880 C 29.264 207.457,29.447 209.612,30.021 209.612 C 30.390 209.612,34.540 213.892,35.053 214.802 C 35.566 215.713,35.706 219.335,35.261 220.183 C 35.110 220.472,35.164 220.724,35.424 220.939 C 35.638 221.117,35.813 221.370,35.813 221.501 C 35.813 221.928,54.552 240.421,54.998 240.433 C 57.583 240.505,63.904 240.514,81.802 240.471 L 102.907 240.421 108.821 234.496 L 114.735 228.571 162.052 228.571 L 209.369 228.571 214.972 234.167 C 218.053 237.245,220.761 239.915,220.989 240.100 C 221.560 240.565,286.775 240.576,287.648 240.111 C 287.960 239.945,289.016 238.969,289.995 237.942 L 291.773 236.076 329.900 236.076 C 364.708 236.076,368.083 236.039,368.674 235.647 C 369.910 234.828,376.827 227.770,376.839 227.316 C 376.846 227.065,376.841 221.423,376.827 214.778 L 376.803 202.696 377.509 201.677 C 377.897 201.117,378.305 200.658,378.416 200.658 C 378.526 200.658,379.073 200.173,379.631 199.579 C 380.189 198.986,380.912 198.232,381.238 197.903 C 382.043 197.092,382.144 191.531,381.369 190.661 C 381.116 190.376,378.824 188.035,376.277 185.460 L 371.646 180.777 371.423 179.065 C 371.300 178.124,371.199 176.761,371.199 176.037 C 371.180 132.407,371.369 88.634,371.579 87.873 C 371.779 87.149,372.947 85.810,376.381 82.365 C 382.443 76.284,381.805 77.927,381.842 68.328 L 381.873 60.240 380.996 59.308 C 380.513 58.795,379.408 57.685,378.539 56.842 L 376.959 55.308 376.827 47.663 L 376.695 40.018 372.635 35.941 L 368.576 31.863 363.287 31.800 C 360.378 31.765,357.228 31.731,356.287 31.725 C 354.473 31.712,352.600 31.019,352.600 30.359 C 352.600 30.165,352.334 29.896,352.008 29.761 C 351.682 29.625,351.001 29.086,350.494 28.562 C 349.987 28.037,349.376 27.501,349.136 27.370 C 348.880 27.229,322.548 27.125,285.057 27.116 L 221.413 27.100 219.322 29.147 C 218.172 30.272,217.075 31.281,216.884 31.387 C 216.027 31.867,169.326 31.663,168.581 31.176 C 168.192 30.922,165.907 28.741,163.503 26.329 C 161.100 23.917,158.908 21.851,158.632 21.737 C 157.920 21.444,159.703 21.449,106.452 21.593 M272.302 21.602 C 272.992 21.972,272.943 22.502,272.185 22.847 C 271.217 23.288,270.542 22.388,271.284 21.646 C 271.667 21.263,271.667 21.263,272.302 21.602 M266.754 22.251 C 266.754 22.542,266.459 22.644,265.635 22.637 C 264.532 22.628,264.526 22.622,265.174 22.251 C 266.038 21.758,266.754 21.758,266.754 22.251 M277.227 22.334 C 277.295 22.536,276.999 22.646,276.388 22.646 C 275.305 22.646,275.185 22.470,276.037 22.129 C 276.739 21.848,277.085 21.907,277.227 22.334 M19.356 49.846 C 19.004 50.348,18.951 51.759,18.974 60.114 L 19.001 69.800 19.639 70.488 C 19.989 70.867,20.276 71.270,20.276 71.383 C 20.276 71.497,20.495 71.660,20.761 71.744 C 21.027 71.829,21.403 72.192,21.595 72.552 C 21.788 72.912,22.103 73.206,22.296 73.206 C 22.489 73.206,22.646 73.311,22.646 73.438 C 22.646 73.731,24.740 75.839,25.030 75.839 C 25.148 75.839,25.320 76.076,25.411 76.366 C 25.503 76.656,25.698 76.893,25.845 76.893 C 25.991 76.893,26.569 77.396,27.129 78.012 C 27.688 78.627,28.360 79.347,28.622 79.610 C 29.068 80.059,29.106 81.121,29.230 96.332 C 29.302 105.265,29.463 112.781,29.587 113.035 C 29.867 113.607,30.437 113.633,30.648 113.083 C 30.768 112.772,30.927 83.259,30.828 79.816 C 30.815 79.363,29.589 77.962,26.483 74.854 C 24.104 72.472,21.873 70.090,21.526 69.561 L 20.894 68.598 20.852 59.534 C 20.829 54.549,20.745 50.264,20.665 50.012 C 20.435 49.288,19.804 49.208,19.356 49.846 M377.090 78.378 C 377.090 78.808,375.402 80.579,374.992 80.579 C 374.843 80.579,374.720 80.698,374.720 80.843 C 374.720 80.989,373.506 82.338,372.021 83.842 C 370.537 85.345,369.099 86.845,368.827 87.175 C 368.148 87.998,367.814 91.096,368.025 94.608 C 368.147 96.636,368.101 97.674,367.864 98.247 C 367.260 99.705,367.092 98.517,367.088 92.758 L 367.084 87.162 371.723 82.443 C 376.079 78.012,377.090 77.246,377.090 78.378 M368.122 172.425 C 368.090 174.701,368.074 176.860,368.087 177.222 C 368.100 177.584,368.117 178.365,368.124 178.958 C 368.138 180.244,368.088 180.180,372.882 185.021 C 375.499 187.664,376.564 188.917,376.564 189.353 C 376.564 189.831,376.493 189.897,376.248 189.651 C 376.074 189.477,375.767 189.335,375.565 189.335 C 375.134 189.335,371.824 186.094,371.824 185.673 C 371.824 185.515,371.696 185.385,371.540 185.385 C 371.218 185.385,369.190 183.348,369.190 183.024 C 369.190 182.908,368.954 182.751,368.665 182.676 C 368.376 182.600,368.062 182.320,367.967 182.053 C 367.871 181.785,367.612 181.355,367.390 181.097 C 366.962 180.599,366.811 169.015,367.216 167.739 L 367.397 167.169 367.788 167.728 C 368.101 168.175,368.168 169.120,368.122 172.425 M23.043 217.509 C 22.720 218.032,22.681 224.213,22.995 225.092 C 23.289 225.914,38.474 241.448,39.548 242.026 C 40.345 242.455,47.286 242.324,47.660 241.873 C 48.097 241.347,47.771 240.137,47.149 239.974 C 46.879 239.904,46.597 239.611,46.522 239.324 C 46.447 239.037,46.151 238.741,45.864 238.666 C 45.576 238.591,45.280 238.294,45.205 238.007 C 45.130 237.720,44.823 237.421,44.523 237.343 C 44.222 237.264,43.976 237.085,43.976 236.944 C 43.976 236.802,43.384 236.116,42.660 235.418 C 41.935 234.720,41.343 234.020,41.343 233.862 C 41.343 233.704,41.214 233.575,41.056 233.575 C 40.898 233.575,40.198 232.982,39.500 232.258 C 38.802 231.534,38.101 230.941,37.943 230.941 C 37.786 230.941,37.656 230.761,37.656 230.541 C 37.656 230.320,37.373 230.011,37.027 229.853 C 36.681 229.696,36.269 229.283,36.111 228.937 C 35.953 228.591,35.644 228.308,35.424 228.308 C 35.203 228.308,35.023 228.180,35.023 228.023 C 35.023 227.682,30.681 223.305,30.342 223.305 C 30.211 223.305,29.969 223.009,29.804 222.646 C 29.639 222.284,29.338 221.988,29.134 221.988 C 28.931 221.988,28.700 221.742,28.622 221.442 C 28.543 221.142,28.244 220.834,27.957 220.759 C 27.670 220.684,27.374 220.388,27.299 220.101 C 27.224 219.814,26.916 219.515,26.616 219.436 C 26.316 219.358,26.070 219.140,26.070 218.953 C 26.070 218.001,23.497 216.774,23.043 217.509 M24.267 218.104 C 25.023 218.501,47.400 240.810,47.400 241.167 C 47.400 241.627,46.593 241.738,43.254 241.738 L 39.942 241.738 36.677 238.512 C 29.367 231.289,24.094 225.903,23.784 225.345 C 23.485 224.808,23.257 217.775,23.538 217.775 C 23.594 217.775,23.922 217.923,24.267 218.104 M123.607 238.256 C 123.187 238.659,122.640 239.281,122.391 239.639 C 122.142 239.997,121.580 240.764,121.141 241.343 C 120.703 241.922,120.164 242.752,119.944 243.186 C 119.724 243.621,119.398 244.191,119.219 244.453 C 118.592 245.371,119.570 245.688,123.026 245.688 L 126.136 245.688 127.123 244.666 C 127.666 244.104,128.348 243.328,128.637 242.941 C 128.927 242.555,129.486 241.848,129.879 241.372 C 130.272 240.895,130.716 240.219,130.866 239.871 C 131.015 239.522,131.279 239.039,131.452 238.798 C 132.528 237.297,125.140 236.787,123.607 238.256 M136.142 237.715 C 135.570 237.932,133.772 239.920,133.772 240.336 C 133.772 240.531,133.535 240.893,133.246 241.141 C 132.956 241.389,132.719 241.729,132.719 241.898 C 132.719 242.066,132.423 242.398,132.061 242.635 C 131.575 242.954,131.402 243.298,131.402 243.950 C 131.402 246.595,138.842 246.011,139.703 243.299 C 139.856 242.818,140.297 242.253,141.644 240.816 C 142.537 239.863,142.780 238.383,142.119 237.920 C 141.553 237.524,137.057 237.370,136.142 237.715 M147.414 237.854 C 147.185 238.035,146.565 238.776,146.036 239.500 C 144.412 241.724,144.196 242.001,143.490 242.771 C 141.835 244.576,142.844 245.572,146.412 245.654 L 148.914 245.712 150.033 244.734 C 150.648 244.196,151.152 243.619,151.152 243.451 C 151.152 243.284,151.448 242.868,151.810 242.528 C 152.172 242.188,152.469 241.755,152.469 241.566 C 152.469 241.378,152.765 241.029,153.127 240.792 C 153.489 240.555,153.785 240.136,153.785 239.861 C 153.785 239.586,153.931 239.128,154.108 238.844 C 154.833 237.684,148.763 236.786,147.414 237.854 M158.773 238.117 C 157.036 240.081,156.682 240.522,156.682 240.724 C 156.682 240.953,156.216 241.540,155.168 242.630 C 154.482 243.344,154.362 244.920,154.956 245.413 C 156.353 246.572,162.110 245.164,162.711 243.515 C 162.856 243.117,163.092 242.791,163.235 242.791 C 163.378 242.791,163.645 242.377,163.828 241.870 C 164.011 241.363,164.247 240.948,164.353 240.948 C 164.766 240.948,165.372 240.089,165.372 239.503 C 165.372 239.163,165.520 238.824,165.701 238.749 C 165.927 238.655,165.835 238.441,165.409 238.068 C 164.438 237.219,159.535 237.255,158.773 238.117 M130.218 239.195 C 129.774 240.252,129.032 240.465,129.032 239.535 C 129.032 239.170,128.885 238.782,128.706 238.671 C 128.311 238.426,129.462 238.091,130.128 238.256 C 130.515 238.351,130.526 238.461,130.218 239.195 M141.622 239.028 C 141.680 239.625,141.545 240.009,141.161 240.337 C 140.863 240.593,140.619 240.925,140.619 241.075 C 140.619 241.225,140.382 241.496,140.092 241.677 C 139.803 241.858,139.566 242.164,139.566 242.358 C 139.566 243.045,137.766 244.597,136.870 244.683 C 133.582 245.000,131.084 244.214,132.252 243.231 C 132.453 243.061,133.026 242.350,133.524 241.650 C 135.996 238.180,136.197 238.058,139.302 238.130 L 141.540 238.183 141.622 239.028 M153.206 238.986 C 153.259 239.534,153.112 239.946,152.745 240.278 C 152.448 240.547,152.205 240.929,152.205 241.129 C 152.205 241.328,152.023 241.561,151.799 241.647 C 151.576 241.733,151.168 242.244,150.893 242.784 C 150.618 243.323,150.094 243.960,149.728 244.199 C 148.092 245.271,142.140 244.433,143.697 243.350 C 143.827 243.260,144.688 242.202,145.612 240.999 C 147.693 238.288,148.000 238.122,150.861 238.156 L 153.127 238.183 153.206 238.986 M164.794 239.018 C 164.852 239.614,164.699 240.019,164.247 240.463 C 163.901 240.802,163.194 241.735,162.676 242.536 C 161.546 244.283,161.064 244.548,158.638 244.759 C 154.948 245.079,154.583 244.410,156.838 241.463 C 157.766 240.250,158.525 239.179,158.525 239.083 C 158.525 238.516,160.370 238.070,162.475 238.129 L 164.714 238.191 164.794 239.018 M128.206 238.439 C 127.905 238.740,124.556 238.897,124.556 238.610 C 124.556 238.419,125.223 238.315,126.443 238.315 C 127.481 238.315,128.274 238.371,128.206 238.439 M123.885 239.612 C 124.090 239.944,123.481 241.229,123.200 241.056 C 122.935 240.892,122.899 239.796,123.151 239.544 C 123.398 239.297,123.708 239.325,123.885 239.612 M128.900 240.684 C 128.990 240.829,128.891 241.193,128.680 241.494 C 128.236 242.128,127.853 241.759,128.111 240.946 C 128.291 240.379,128.640 240.263,128.900 240.684 M176.673 241.043 C 176.408 241.274,174.325 241.401,174.325 241.186 C 174.325 241.055,174.878 240.948,175.554 240.948 C 176.230 240.948,176.734 240.991,176.673 241.043 M190.031 241.130 C 189.845 241.316,187.184 241.253,186.987 241.057 C 186.927 240.997,187.628 240.948,188.545 240.948 C 189.462 240.948,190.131 241.030,190.031 241.130 M195.360 241.068 C 195.154 241.274,193.313 241.327,193.119 241.133 C 193.017 241.031,193.507 240.948,194.207 240.948 C 194.907 240.948,195.426 241.002,195.360 241.068 M201.386 241.129 C 201.134 241.195,200.660 241.197,200.332 241.134 C 200.005 241.071,200.211 241.017,200.790 241.014 C 201.369 241.011,201.637 241.063,201.386 241.129 M207.044 241.562 C 206.712 243.195,204.345 243.568,204.345 241.988 C 204.345 241.510,204.191 241.220,203.908 241.165 C 203.667 241.118,204.300 241.060,205.315 241.036 C 207.078 240.994,207.155 241.017,207.044 241.562 M210.862 241.137 C 210.464 241.197,209.812 241.197,209.414 241.137 C 209.016 241.076,209.342 241.027,210.138 241.027 C 210.935 241.027,211.261 241.076,210.862 241.137 M122.354 242.395 C 122.121 243.003,121.679 242.641,121.851 241.984 C 121.945 241.622,122.081 241.528,122.256 241.703 C 122.401 241.848,122.445 242.159,122.354 242.395 M174.325 242.115 C 174.325 242.288,173.910 242.628,173.404 242.870 C 172.897 243.112,172.482 243.433,172.482 243.584 C 172.482 243.734,172.186 243.970,171.824 244.108 C 171.461 244.246,171.165 244.537,171.165 244.755 C 171.165 244.973,170.869 245.226,170.507 245.316 C 170.145 245.407,169.849 245.644,169.849 245.841 C 169.849 246.039,169.493 246.385,169.059 246.610 C 168.624 246.834,168.269 247.137,168.269 247.283 C 168.269 247.429,168.061 247.621,167.808 247.710 C 167.554 247.799,167.041 248.153,166.668 248.498 L 165.989 249.124 152.167 249.158 C 142.368 249.182,138.198 249.106,137.837 248.896 C 137.197 248.525,135.748 248.570,151.810 248.460 C 164.982 248.370,166.425 248.268,166.425 247.435 C 166.425 247.230,166.722 246.987,167.084 246.896 C 167.446 246.806,167.742 246.556,167.742 246.341 C 167.742 246.127,167.866 245.951,168.017 245.951 C 168.169 245.951,168.561 245.685,168.889 245.359 C 169.217 245.033,169.892 244.455,170.391 244.075 C 170.889 243.694,171.739 242.964,172.279 242.452 C 173.245 241.535,174.325 241.357,174.325 242.115 M23.315 242.210 C 22.454 243.071,30.667 251.922,32.014 251.585 C 32.365 251.496,32.653 251.383,32.653 251.333 C 32.653 249.934,24.023 241.502,23.315 242.210 M127.510 243.043 C 127.427 243.611,127.248 243.845,126.896 243.845 C 126.294 243.845,126.288 243.770,126.805 242.770 C 127.301 241.811,127.670 241.954,127.510 243.043 M203.080 243.264 C 203.780 243.964,202.578 244.100,195.632 244.104 L 188.630 244.108 186.020 246.692 C 184.585 248.112,183.232 249.361,183.015 249.467 C 182.798 249.572,182.348 249.816,182.015 250.008 C 181.433 250.344,170.374 250.358,169.832 250.023 C 169.722 249.955,169.042 250.036,168.320 250.203 C 166.013 250.735,165.884 250.374,167.744 248.582 C 168.645 247.715,169.480 247.005,169.600 247.005 C 169.720 247.005,169.974 246.786,170.163 246.520 C 170.352 246.253,170.774 245.893,171.099 245.720 C 171.425 245.548,171.692 245.233,171.692 245.020 C 171.692 244.808,171.860 244.635,172.065 244.635 C 172.270 244.635,172.675 244.309,172.965 243.910 L 173.492 243.186 180.953 243.055 C 194.665 242.813,202.704 242.889,203.080 243.264 M121.499 243.471 C 121.798 244.250,121.660 244.836,121.148 244.970 C 120.495 245.141,120.342 244.977,120.342 244.108 C 120.342 243.039,121.161 242.589,121.499 243.471 "
                    stroke="none" fill="#045a7b" fill-rule="evenodd" />
                <path id="path1"
                    d="M56.100 16.376 C 55.804 16.693,55.559 17.078,55.555 17.232 C 55.543 17.683,25.232 47.751,24.294 48.242 L 23.440 48.690 23.460 54.122 C 23.479 59.274,23.504 59.533,23.940 59.139 C 24.193 58.910,24.479 58.723,24.577 58.723 C 24.866 58.723,27.732 55.748,28.108 55.057 C 28.344 54.624,28.403 53.946,28.293 52.950 C 28.041 50.670,28.717 49.758,36.105 42.422 C 36.337 42.190,38.411 40.142,40.713 37.870 C 43.015 35.597,46.161 32.457,47.704 30.891 C 49.247 29.326,51.262 27.319,52.180 26.432 C 53.099 25.545,54.457 24.177,55.198 23.391 C 55.939 22.606,56.926 21.643,57.391 21.251 L 58.237 20.540 108.315 20.542 C 164.389 20.544,158.781 20.340,160.609 22.440 C 161.450 23.406,164.198 26.144,167.421 29.227 L 169.076 30.810 192.833 30.807 L 216.590 30.805 218.356 29.030 C 220.584 26.791,220.935 26.407,220.935 26.217 C 220.935 26.132,209.501 26.068,195.526 26.074 C 173.122 26.084,170.046 26.037,169.522 25.681 C 169.195 25.459,167.037 23.382,164.726 21.066 C 160.669 16.997,160.489 16.853,159.449 16.853 C 158.858 16.853,157.909 16.616,157.340 16.327 C 156.318 15.805,155.787 15.800,106.472 15.800 L 56.637 15.800 56.100 16.376 M242.446 17.855 C 242.056 18.261,241.738 18.734,241.738 18.906 C 241.738 19.078,241.501 19.367,241.211 19.548 C 240.922 19.729,240.685 19.974,240.685 20.094 C 240.685 20.214,240.388 20.700,240.026 21.175 C 238.986 22.539,239.107 22.646,241.692 22.646 C 244.003 22.646,245.161 22.160,245.161 21.190 C 245.161 21.060,245.401 20.712,245.694 20.417 C 248.380 17.714,248.341 17.117,245.474 17.117 C 243.275 17.117,243.116 17.155,242.446 17.855 M253.588 17.344 C 253.588 17.552,253.027 18.345,251.430 20.397 C 250.865 21.122,250.165 22.311,250.165 22.545 C 250.165 22.601,251.261 22.641,252.600 22.634 L 255.036 22.622 255.772 21.647 C 256.176 21.110,256.853 20.217,257.275 19.661 C 257.698 19.105,258.116 18.424,258.204 18.147 C 258.291 17.870,258.474 17.643,258.609 17.643 C 258.744 17.643,258.855 17.525,258.855 17.380 C 258.855 17.222,257.801 17.117,256.221 17.117 C 254.773 17.117,253.588 17.219,253.588 17.344 M349.698 26.648 C 349.991 26.921,350.230 27.260,350.230 27.402 C 350.230 27.545,350.527 27.796,350.889 27.961 C 351.251 28.126,351.547 28.420,351.547 28.614 C 351.547 28.808,351.671 28.966,351.822 28.966 C 351.974 28.966,352.402 29.271,352.774 29.643 C 353.869 30.738,354.413 30.810,361.628 30.810 L 368.515 30.810 373.044 35.352 L 377.572 39.895 377.764 42.528 C 377.869 43.976,377.884 47.330,377.797 49.981 L 377.638 54.801 379.648 56.904 C 382.557 59.949,382.428 60.321,382.461 48.800 C 382.491 38.332,382.476 38.199,381.170 37.392 C 380.448 36.946,376.199 32.777,371.626 28.029 C 371.445 27.841,371.297 27.392,371.297 27.031 C 371.297 26.084,371.100 26.069,359.508 26.113 C 349.369 26.152,349.177 26.162,349.698 26.648 M23.552 199.934 L 23.585 210.533 28.536 215.537 C 31.260 218.288,33.596 220.718,33.729 220.935 C 34.248 221.786,34.513 220.557,34.439 217.641 L 34.365 214.742 31.697 212.111 C 27.983 208.449,28.198 209.146,28.222 200.871 C 28.234 196.529,28.138 193.708,27.969 193.394 C 27.641 192.788,24.038 189.335,23.734 189.335 C 23.616 189.335,23.534 194.105,23.552 199.934 M379.929 200.153 C 377.608 202.563,377.765 201.478,377.833 214.593 C 377.894 226.453,377.724 228.835,376.816 228.835 C 376.689 228.835,376.136 229.327,375.587 229.929 C 375.038 230.530,374.190 231.390,373.703 231.838 C 373.215 232.286,371.897 233.571,370.772 234.694 L 368.727 236.735 330.500 236.735 L 292.272 236.735 291.662 237.393 C 291.327 237.755,290.918 238.051,290.753 238.051 C 290.589 238.051,290.453 238.199,290.452 238.381 C 290.451 238.562,289.808 239.238,289.023 239.884 C 288.238 240.530,287.653 241.152,287.724 241.267 C 287.794 241.381,306.455 241.475,329.192 241.475 L 370.531 241.475 370.980 240.634 C 371.541 239.583,381.216 229.888,381.704 229.888 C 382.349 229.888,382.367 229.543,382.510 214.492 C 382.681 196.472,382.806 197.165,379.929 200.153 M24.326 219.476 C 23.411 221.860,24.717 226.603,26.531 227.483 C 26.856 227.641,27.123 227.907,27.123 228.074 C 27.123 228.337,27.466 228.694,29.286 230.323 C 29.472 230.490,30.647 231.675,31.896 232.957 C 33.144 234.238,34.566 235.653,35.055 236.102 C 35.545 236.550,36.386 237.379,36.925 237.945 C 40.094 241.268,39.719 241.062,42.880 241.219 C 44.424 241.296,45.955 241.311,46.280 241.254 C 46.943 241.138,47.096 240.685,46.472 240.685 C 46.252 240.685,45.937 240.388,45.772 240.026 C 45.607 239.664,45.370 239.368,45.245 239.368 C 45.121 239.368,43.713 238.035,42.117 236.406 C 40.521 234.776,39.131 233.358,39.028 233.254 C 38.926 233.150,37.804 232.055,36.537 230.820 C 35.270 229.585,34.233 228.455,34.233 228.309 C 34.233 228.164,34.124 228.045,33.991 228.045 C 33.645 228.045,31.600 226.035,31.600 225.695 C 31.600 225.539,31.481 225.411,31.336 225.411 C 31.000 225.411,25.280 219.679,25.280 219.343 C 25.280 218.942,24.488 219.052,24.326 219.476 M114.974 229.603 C 113.550 230.558,103.260 241.070,103.562 241.262 C 103.739 241.375,104.916 241.468,106.178 241.471 L 108.471 241.475 112.366 237.535 C 115.995 233.864,118.005 232.379,118.574 232.947 C 118.641 233.015,123.125 233.055,128.538 233.037 C 161.198 232.930,206.866 233.094,207.092 233.320 C 207.232 233.460,207.455 233.575,207.586 233.575 C 207.718 233.575,209.049 234.789,210.544 236.274 C 212.039 237.758,213.448 239.126,213.675 239.313 C 213.902 239.499,214.088 239.878,214.088 240.153 C 214.088 241.125,215.074 241.475,217.812 241.475 C 221.301 241.475,221.439 241.392,220.073 240.132 C 217.797 238.032,215.932 236.135,215.932 235.921 C 215.932 235.799,215.683 235.567,215.379 235.404 C 215.076 235.242,214.513 234.751,214.128 234.313 C 213.020 233.052,211.154 231.227,209.969 230.247 L 208.879 229.345 162.205 229.287 C 122.294 229.238,115.451 229.284,114.974 229.603 M136.727 239.050 C 136.397 239.152,135.720 239.770,135.223 240.421 C 133.509 242.666,133.376 242.835,133.065 243.172 C 131.900 244.434,136.969 244.557,138.229 243.298 C 138.674 242.852,139.039 242.378,139.039 242.244 C 139.039 242.111,139.246 241.792,139.500 241.536 C 140.381 240.647,140.942 239.586,140.674 239.318 C 140.349 238.993,137.526 238.801,136.727 239.050 M148.255 239.046 C 147.756 239.209,145.885 241.227,145.885 241.603 C 145.885 241.758,145.678 242.080,145.425 242.319 C 143.908 243.751,144.209 244.108,146.933 244.108 C 149.218 244.108,149.943 243.755,150.525 242.362 C 150.729 241.874,151.001 241.475,151.130 241.475 C 151.539 241.475,152.518 239.575,152.247 239.305 C 151.977 239.035,148.901 238.835,148.255 239.046 M159.645 239.014 C 159.319 239.084,159.052 239.230,159.052 239.339 C 159.052 239.448,158.697 239.935,158.262 240.421 C 157.828 240.908,157.472 241.433,157.472 241.589 C 157.472 241.744,157.113 242.210,156.674 242.624 C 155.506 243.727,155.962 244.108,158.451 244.108 C 160.604 244.108,161.745 243.591,162.101 242.455 C 162.202 242.133,162.535 241.606,162.841 241.284 C 164.612 239.417,164.697 239.105,163.434 239.105 C 162.947 239.105,162.029 239.056,161.393 238.996 C 160.757 238.936,159.970 238.944,159.645 239.014 "
                    stroke="none" fill="#b7deec" fill-rule="evenodd" />
            </g>
        
        <g xmlns="http://www.w3.org/2000/svg" id="svgg">
            <path id="path0"
                d="M238.169 11.062 C 236.854 11.195,234.891 12.578,234.891 13.373 C 234.891 13.530,234.654 13.733,234.365 13.825 C 234.075 13.917,233.838 14.094,233.838 14.218 C 233.838 14.605,230.846 17.501,230.107 17.828 C 229.268 18.199,223.071 18.274,222.195 17.923 C 221.864 17.790,221.060 17.170,220.408 16.544 L 219.223 15.405 197.051 15.405 C 173.157 15.405,173.346 15.394,174.965 16.685 L 175.726 17.292 196.935 17.343 C 215.202 17.386,218.203 17.447,218.572 17.782 C 218.808 17.995,219.140 18.170,219.310 18.170 C 219.479 18.170,219.618 18.327,219.618 18.518 C 219.618 19.700,221.616 20.276,225.711 20.276 C 230.459 20.276,230.477 20.270,233.589 17.142 C 234.827 15.897,236.339 14.434,236.947 13.891 L 238.053 12.903 263.807 12.903 L 289.561 12.903 291.156 14.440 C 292.034 15.285,292.798 16.085,292.854 16.217 C 292.910 16.350,293.436 16.784,294.023 17.182 L 295.091 17.907 315.500 17.907 C 337.887 17.907,337.357 17.944,336.170 16.463 L 335.541 15.678 315.819 15.759 C 293.315 15.851,295.474 16.088,292.627 13.216 C 291.238 11.814,290.486 11.255,289.862 11.159 C 288.716 10.983,239.865 10.891,238.169 11.062 M236.208 13.386 C 236.208 13.729,235.895 13.957,235.640 13.800 C 235.368 13.631,235.603 13.167,235.960 13.167 C 236.097 13.167,236.208 13.265,236.208 13.386 M53.901 15.091 C 53.584 15.209,46.422 22.226,37.986 30.685 L 22.646 46.065 22.646 56.925 L 22.646 67.785 25.280 70.373 C 26.728 71.796,27.913 73.075,27.913 73.215 C 27.913 73.355,28.081 73.469,28.286 73.469 C 28.491 73.469,28.699 73.584,28.747 73.724 C 28.795 73.865,29.753 74.920,30.876 76.070 L 32.916 78.161 32.916 98.048 C 32.916 118.925,32.925 118.762,31.844 118.762 C 31.710 118.762,31.600 118.932,31.600 119.140 C 31.600 119.347,31.363 119.592,31.073 119.684 C 30.783 119.776,30.546 119.937,30.546 120.043 C 30.546 120.357,28.504 122.449,28.197 122.449 C 28.041 122.449,27.913 122.566,27.913 122.709 C 27.913 122.852,26.728 124.145,25.280 125.583 L 22.647 128.198 22.645 169.577 C 22.644 194.161,22.741 211.137,22.884 211.403 C 23.017 211.649,25.047 213.746,27.394 216.063 C 29.742 218.381,31.975 220.620,32.356 221.039 C 32.736 221.458,35.520 224.243,38.542 227.227 C 41.564 230.211,44.171 232.802,44.335 232.985 C 45.865 234.680,53.003 241.727,53.720 242.250 L 54.641 242.923 81.369 242.923 L 108.097 242.923 109.217 242.196 C 109.832 241.795,110.336 241.292,110.336 241.076 C 110.336 240.861,110.462 240.685,110.617 240.685 C 110.947 240.685,112.706 238.875,112.706 238.535 C 112.706 238.407,113.002 238.189,113.364 238.051 C 113.726 237.914,114.022 237.617,114.022 237.391 C 114.022 237.166,114.227 236.903,114.477 236.807 C 115.060 236.583,116.656 234.994,116.656 234.637 C 116.656 234.451,130.933 234.365,161.879 234.365 L 207.101 234.365 208.995 236.340 C 210.036 237.426,210.947 238.315,211.020 238.315 C 211.388 238.315,212.695 239.911,212.450 240.062 C 212.297 240.157,203.725 240.216,193.401 240.195 C 182.508 240.172,174.372 240.257,174.017 240.397 C 173.271 240.692,168.031 245.058,166.517 246.647 L 165.424 247.795 151.187 247.795 C 135.375 247.795,136.110 247.709,136.559 249.501 C 136.676 249.966,136.619 250.165,136.368 250.167 C 98.956 250.383,38.897 250.098,38.445 249.702 C 37.089 248.515,33.180 244.526,33.180 244.329 C 33.180 244.208,33.059 244.108,32.911 244.108 C 32.615 244.108,28.900 240.377,28.257 239.434 C 28.034 239.108,27.760 238.841,27.647 238.841 C 27.326 238.841,25.929 237.459,25.569 236.785 C 25.111 235.927,23.568 236.045,23.568 236.938 C 23.568 237.620,37.064 251.369,38.131 251.775 C 38.482 251.908,69.622 252.007,110.846 252.006 L 182.947 252.005 183.968 251.219 C 185.331 250.172,185.371 250.136,186.475 248.953 C 187.002 248.388,187.950 247.452,188.582 246.873 L 189.730 245.820 196.810 245.799 C 203.486 245.780,203.911 245.750,204.241 245.272 C 204.433 244.994,204.712 244.648,204.860 244.503 C 205.008 244.358,205.397 243.981,205.725 243.664 L 206.320 243.088 289.352 242.965 C 368.925 242.848,372.408 242.823,372.960 242.367 C 373.276 242.105,374.260 241.175,375.147 240.300 C 376.033 239.426,378.314 237.182,380.216 235.315 L 383.673 231.920 383.697 222.807 C 383.710 217.794,383.753 209.131,383.792 203.555 C 383.878 191.264,383.786 189.315,383.106 189.137 C 382.839 189.068,382.620 188.915,382.620 188.799 C 382.620 188.476,380.593 186.438,380.271 186.438 C 380.115 186.438,379.987 186.324,379.987 186.184 C 379.987 185.789,378.075 183.805,377.694 183.805 C 377.507 183.805,377.354 183.576,377.354 183.296 C 377.354 183.016,377.127 182.715,376.850 182.628 C 376.574 182.540,376.156 182.176,375.923 181.820 C 375.689 181.463,375.323 181.172,375.109 181.172 C 374.895 181.172,374.720 181.009,374.720 180.809 C 374.720 180.609,374.487 180.283,374.202 180.085 C 373.691 179.728,373.683 179.124,373.610 133.864 L 373.535 88.004 374.259 87.333 C 374.658 86.963,374.984 86.545,374.984 86.403 C 374.984 86.261,375.214 86.071,375.497 85.982 C 375.779 85.892,376.079 85.601,376.164 85.334 C 376.248 85.068,376.551 84.789,376.836 84.714 C 377.120 84.640,377.354 84.390,377.354 84.159 C 377.354 83.928,377.462 83.739,377.595 83.739 C 377.941 83.739,379.987 81.730,379.987 81.390 C 379.987 81.234,380.095 81.106,380.228 81.106 C 380.586 81.106,382.620 79.148,382.620 78.804 C 382.620 78.641,382.857 78.433,383.147 78.341 C 383.977 78.078,383.977 36.007,383.147 35.489 C 382.857 35.308,382.620 35.007,382.620 34.820 C 382.620 34.633,382.415 34.401,382.165 34.305 C 381.914 34.209,379.721 32.109,377.291 29.639 L 372.873 25.148 271.775 25.207 L 170.677 25.265 166.215 20.862 C 160.886 15.602,160.808 15.537,159.956 15.537 C 159.587 15.537,158.788 15.416,158.181 15.268 C 156.839 14.941,54.775 14.768,53.901 15.091 M158.182 15.936 C 158.696 16.151,159.431 16.327,159.816 16.327 C 160.785 16.327,161.043 16.539,165.835 21.275 L 170.080 25.471 218.351 25.671 C 244.901 25.781,290.450 25.827,319.573 25.773 L 372.523 25.675 373.785 26.894 C 374.479 27.565,375.149 28.216,375.273 28.342 C 375.398 28.468,377.220 30.320,379.323 32.458 L 383.147 36.344 383.156 47.863 C 383.181 76.636,383.167 77.492,382.676 77.962 C 382.428 78.201,381.819 78.887,381.322 79.487 C 380.826 80.088,380.263 80.579,380.072 80.579 C 379.880 80.579,379.724 80.668,379.724 80.777 C 379.724 81.017,377.741 83.213,377.524 83.213 C 377.440 83.213,376.949 83.657,376.433 84.200 C 375.917 84.743,374.935 85.754,374.252 86.447 L 373.009 87.706 373.009 133.736 L 373.009 179.766 378.078 184.868 C 381.862 188.676,383.154 190.139,383.176 190.639 C 383.421 196.327,383.090 231.119,382.787 231.576 C 381.336 233.762,372.762 241.723,371.684 241.885 C 370.128 242.118,213.986 241.869,213.604 241.632 C 213.436 241.529,213.297 241.065,213.295 240.603 C 213.292 239.743,208.388 234.492,207.145 234.018 C 206.799 233.887,129.072 233.724,117.622 233.831 C 117.017 233.837,116.135 234.580,112.926 237.788 C 110.752 239.961,108.836 241.749,108.668 241.762 C 108.499 241.775,97.103 241.774,83.344 241.760 C 69.585 241.745,57.338 241.735,56.129 241.736 L 53.930 241.738 38.871 226.662 C 30.589 218.371,23.660 211.385,23.472 211.139 C 23.196 210.777,23.136 202.864,23.161 169.555 L 23.190 128.418 23.840 127.816 C 24.197 127.485,24.490 127.090,24.490 126.938 C 24.490 126.786,24.604 126.662,24.745 126.662 C 24.885 126.662,26.870 124.796,29.155 122.515 L 33.311 118.367 33.311 97.959 L 33.311 77.551 28.242 72.497 L 23.173 67.444 23.145 62.754 C 23.130 60.175,23.124 55.476,23.133 52.312 L 23.149 46.560 24.938 44.707 C 28.195 41.336,32.780 36.866,32.981 36.866 C 33.091 36.866,33.192 36.718,33.206 36.537 C 33.221 36.356,34.038 35.497,35.023 34.628 C 36.008 33.759,36.834 32.930,36.859 32.785 C 36.884 32.640,37.480 32.047,38.183 31.468 C 38.886 30.889,39.470 30.346,39.481 30.263 C 39.510 30.025,47.854 21.749,48.171 21.643 C 48.326 21.592,48.453 21.448,48.453 21.324 C 48.453 21.201,49.704 19.853,51.232 18.330 L 54.011 15.561 55.643 15.483 C 62.353 15.162,157.334 15.582,158.182 15.936 M263.924 16.093 C 263.453 16.395,263.068 16.766,263.068 16.917 C 263.068 17.069,262.822 17.442,262.521 17.747 C 261.622 18.658,260.434 20.325,260.434 20.677 C 260.434 20.858,260.138 21.200,259.776 21.437 C 258.791 22.083,259.455 24.437,260.449 23.823 C 260.591 23.735,261.572 23.803,262.629 23.973 C 264.554 24.284,267.281 23.640,267.281 22.876 C 267.281 22.748,267.577 22.385,267.939 22.071 C 268.302 21.756,268.598 21.387,268.598 21.251 C 268.598 21.115,268.953 20.599,269.388 20.105 C 269.822 19.610,270.178 19.060,270.178 18.882 C 270.178 18.705,270.415 18.412,270.704 18.231 C 271.423 17.782,271.434 16.190,270.722 15.809 C 269.726 15.276,264.884 15.479,263.924 16.093 M274.493 16.392 C 274.058 16.863,273.294 17.816,272.795 18.509 C 272.297 19.202,271.445 20.345,270.902 21.048 C 269.498 22.866,270.128 24.013,272.479 23.921 C 273.050 23.898,273.625 23.946,273.757 24.026 C 274.140 24.259,277.100 23.710,277.749 23.285 C 278.284 22.935,279.246 21.667,280.108 20.177 C 280.283 19.875,280.579 19.505,280.766 19.356 C 283.623 17.081,282.497 15.537,277.981 15.537 L 275.284 15.537 274.493 16.392 M242.559 16.392 C 242.064 16.520,241.582 16.945,241.210 17.578 C 240.891 18.121,240.465 18.660,240.262 18.775 C 240.060 18.891,239.895 19.189,239.895 19.436 C 239.895 19.684,239.658 20.034,239.368 20.215 C 239.078 20.396,238.841 20.684,238.841 20.854 C 238.841 21.025,238.579 21.444,238.258 21.786 C 236.998 23.126,238.621 23.828,242.520 23.630 C 244.560 23.527,245.062 23.418,245.285 23.030 C 245.434 22.769,245.879 22.207,246.272 21.780 C 246.666 21.354,247.068 20.752,247.166 20.443 C 247.264 20.134,247.563 19.727,247.832 19.537 C 248.101 19.348,248.321 19.019,248.321 18.805 C 248.321 18.591,248.502 18.347,248.724 18.262 C 251.990 17.009,246.549 15.358,242.559 16.392 M253.720 16.256 C 253.239 16.376,251.481 17.963,251.481 18.276 C 251.481 18.349,250.889 19.202,250.165 20.170 C 247.895 23.207,248.405 23.874,252.781 23.591 C 255.546 23.413,257.275 22.614,257.275 21.514 C 257.275 21.382,257.541 20.945,257.867 20.543 C 260.251 17.601,260.376 17.322,259.638 16.584 C 259.124 16.069,255.313 15.858,253.720 16.256 M248.389 16.919 C 248.774 17.213,248.667 17.457,247.370 19.223 C 246.573 20.309,245.720 21.522,245.475 21.918 C 244.886 22.870,243.924 23.173,241.486 23.173 C 238.880 23.173,238.285 22.822,238.998 21.703 C 239.954 20.203,242.545 16.891,242.863 16.762 C 243.579 16.472,247.967 16.597,248.389 16.919 M259.330 17.174 C 259.424 17.667,257.447 20.566,255.923 22.168 L 254.967 23.173 252.616 23.173 C 249.363 23.173,249.030 22.904,250.205 21.226 C 250.690 20.534,251.264 19.706,251.481 19.387 C 251.698 19.067,252.284 18.304,252.783 17.690 L 253.690 16.573 256.466 16.647 C 258.846 16.711,259.256 16.786,259.330 17.174 M270.658 17.203 C 270.711 17.478,270.487 17.739,270.058 17.902 C 269.682 18.045,269.277 18.424,269.159 18.743 C 268.947 19.316,268.941 19.314,268.772 18.640 C 268.677 18.263,268.530 17.773,268.444 17.549 C 268.332 17.257,268.533 17.073,269.167 16.892 C 270.253 16.581,270.549 16.643,270.658 17.203 M280.959 16.838 C 281.423 17.132,280.906 18.542,280.397 18.372 C 279.798 18.173,279.536 17.449,279.903 17.007 C 280.300 16.528,280.435 16.506,280.959 16.838 M275.995 17.248 C 275.993 17.393,275.750 17.549,275.455 17.596 C 274.925 17.679,274.742 17.380,275.102 17.020 C 275.358 16.764,276.000 16.928,275.995 17.248 M265.174 17.303 C 264.957 17.383,264.572 17.629,264.319 17.850 C 263.898 18.216,263.858 18.202,263.858 17.684 C 263.858 17.215,264.006 17.120,264.714 17.137 C 265.184 17.149,265.392 17.223,265.174 17.303 M274.650 18.383 C 274.638 18.958,274.123 19.348,273.879 18.969 C 273.720 18.721,273.731 18.462,273.909 18.247 C 274.178 17.923,274.659 18.011,274.650 18.383 M263.397 18.608 C 263.216 18.681,263.068 19.027,263.068 19.377 C 263.068 19.786,262.917 20.013,262.645 20.013 C 262.367 20.013,262.276 19.870,262.381 19.597 C 262.469 19.368,262.541 19.012,262.541 18.807 C 262.541 18.589,262.788 18.442,263.134 18.454 C 263.460 18.465,263.578 18.535,263.397 18.608 M279.658 19.618 C 279.658 20.070,279.219 20.362,278.867 20.144 C 278.692 20.036,278.696 19.807,278.880 19.463 C 279.175 18.913,279.658 19.009,279.658 19.618 M273.451 19.720 C 273.530 19.848,273.429 20.091,273.227 20.259 C 272.816 20.600,272.396 20.209,272.679 19.750 C 272.881 19.424,273.259 19.409,273.451 19.720 M268.095 20.474 C 267.989 20.872,267.703 21.236,267.461 21.283 C 267.161 21.341,267.062 21.235,267.150 20.954 C 267.222 20.726,267.337 20.362,267.405 20.145 C 267.645 19.373,268.305 19.688,268.095 20.474 M286.574 20.220 C 283.847 20.296,283.008 20.652,283.560 21.502 C 284.115 22.356,284.756 22.369,327.994 22.402 C 359.320 22.426,371.310 22.517,371.803 22.732 C 372.588 23.075,373.535 23.937,378.007 28.374 C 379.795 30.148,381.431 31.600,381.643 31.600 C 382.741 31.600,382.947 29.563,381.896 29.101 C 381.570 28.959,381.303 28.689,381.303 28.503 C 381.303 28.317,381.007 28.030,380.645 27.865 C 380.283 27.700,379.987 27.404,379.987 27.207 C 379.987 27.010,379.691 26.714,379.329 26.549 C 378.966 26.384,378.670 26.087,378.670 25.889 C 378.670 25.692,378.374 25.417,378.012 25.280 C 377.650 25.142,377.354 24.902,377.354 24.747 C 377.354 24.387,375.675 22.646,375.328 22.646 C 375.185 22.646,374.933 22.350,374.768 21.988 C 374.603 21.626,374.335 21.330,374.171 21.330 C 374.008 21.330,373.655 21.051,373.387 20.710 L 372.900 20.091 331.085 20.118 C 308.086 20.133,288.057 20.179,286.574 20.220 M278.341 21.051 C 278.341 21.652,277.926 21.987,277.678 21.585 C 277.456 21.227,277.714 20.540,278.069 20.540 C 278.219 20.540,278.341 20.770,278.341 21.051 M261.822 21.264 C 261.895 21.517,262.037 21.925,262.138 22.170 C 262.285 22.524,262.130 22.650,261.380 22.791 C 259.716 23.103,259.413 22.762,260.454 21.751 C 261.528 20.706,261.650 20.663,261.822 21.264 M372.877 21.330 C 372.877 21.637,373.052 21.856,373.298 21.856 C 373.530 21.856,374.588 22.745,375.650 23.831 C 376.712 24.918,377.707 25.806,377.862 25.806 C 378.017 25.806,378.144 25.987,378.144 26.207 C 378.144 26.427,378.440 26.743,378.802 26.908 C 379.164 27.073,379.460 27.369,379.460 27.567 C 379.460 27.764,379.746 28.035,380.096 28.168 C 380.446 28.301,380.807 28.647,380.899 28.938 C 380.992 29.228,381.298 29.539,381.580 29.629 C 382.153 29.811,382.199 29.972,381.840 30.540 C 381.591 30.934,380.499 30.221,379.894 29.269 C 379.769 29.074,379.430 28.718,379.140 28.479 C 378.586 28.022,378.396 27.835,375.261 24.643 C 374.183 23.545,373.205 22.646,373.089 22.646 C 372.972 22.646,372.877 22.484,372.877 22.286 C 372.877 21.625,371.165 21.599,328.066 21.596 C 286.793 21.593,284.224 21.560,284.546 21.039 C 284.900 20.466,372.877 20.756,372.877 21.330 M106.452 21.593 L 57.933 21.725 43.622 36.076 L 29.311 50.428 29.428 52.406 C 29.542 54.345,28.699 56.616,27.865 56.616 C 27.745 56.616,26.936 57.338,26.068 58.219 L 24.490 59.822 24.490 63.346 L 24.490 66.870 29.625 71.965 L 34.760 77.060 34.760 97.932 L 34.760 118.804 29.625 123.974 L 24.490 129.144 24.490 158.943 L 24.490 188.742 26.531 190.863 C 27.653 192.030,28.735 193.182,28.934 193.423 C 29.223 193.772,29.293 195.289,29.280 200.880 C 29.264 207.457,29.447 209.612,30.021 209.612 C 30.390 209.612,34.540 213.892,35.053 214.802 C 35.566 215.713,35.706 219.335,35.261 220.183 C 35.110 220.472,35.164 220.724,35.424 220.939 C 35.638 221.117,35.813 221.370,35.813 221.501 C 35.813 221.928,54.552 240.421,54.998 240.433 C 57.583 240.505,63.904 240.514,81.802 240.471 L 102.907 240.421 108.821 234.496 L 114.735 228.571 162.052 228.571 L 209.369 228.571 214.972 234.167 C 218.053 237.245,220.761 239.915,220.989 240.100 C 221.560 240.565,286.775 240.576,287.648 240.111 C 287.960 239.945,289.016 238.969,289.995 237.942 L 291.773 236.076 329.900 236.076 C 364.708 236.076,368.083 236.039,368.674 235.647 C 369.910 234.828,376.827 227.770,376.839 227.316 C 376.846 227.065,376.841 221.423,376.827 214.778 L 376.803 202.696 377.509 201.677 C 377.897 201.117,378.305 200.658,378.416 200.658 C 378.526 200.658,379.073 200.173,379.631 199.579 C 380.189 198.986,380.912 198.232,381.238 197.903 C 382.043 197.092,382.144 191.531,381.369 190.661 C 381.116 190.376,378.824 188.035,376.277 185.460 L 371.646 180.777 371.423 179.065 C 371.300 178.124,371.199 176.761,371.199 176.037 C 371.180 132.407,371.369 88.634,371.579 87.873 C 371.779 87.149,372.947 85.810,376.381 82.365 C 382.443 76.284,381.805 77.927,381.842 68.328 L 381.873 60.240 380.996 59.308 C 380.513 58.795,379.408 57.685,378.539 56.842 L 376.959 55.308 376.827 47.663 L 376.695 40.018 372.635 35.941 L 368.576 31.863 363.287 31.800 C 360.378 31.765,357.228 31.731,356.287 31.725 C 354.473 31.712,352.600 31.019,352.600 30.359 C 352.600 30.165,352.334 29.896,352.008 29.761 C 351.682 29.625,351.001 29.086,350.494 28.562 C 349.987 28.037,349.376 27.501,349.136 27.370 C 348.880 27.229,322.548 27.125,285.057 27.116 L 221.413 27.100 219.322 29.147 C 218.172 30.272,217.075 31.281,216.884 31.387 C 216.027 31.867,169.326 31.663,168.581 31.176 C 168.192 30.922,165.907 28.741,163.503 26.329 C 161.100 23.917,158.908 21.851,158.632 21.737 C 157.920 21.444,159.703 21.449,106.452 21.593 M272.302 21.602 C 272.992 21.972,272.943 22.502,272.185 22.847 C 271.217 23.288,270.542 22.388,271.284 21.646 C 271.667 21.263,271.667 21.263,272.302 21.602 M266.754 22.251 C 266.754 22.542,266.459 22.644,265.635 22.637 C 264.532 22.628,264.526 22.622,265.174 22.251 C 266.038 21.758,266.754 21.758,266.754 22.251 M277.227 22.334 C 277.295 22.536,276.999 22.646,276.388 22.646 C 275.305 22.646,275.185 22.470,276.037 22.129 C 276.739 21.848,277.085 21.907,277.227 22.334 M19.356 49.846 C 19.004 50.348,18.951 51.759,18.974 60.114 L 19.001 69.800 19.639 70.488 C 19.989 70.867,20.276 71.270,20.276 71.383 C 20.276 71.497,20.495 71.660,20.761 71.744 C 21.027 71.829,21.403 72.192,21.595 72.552 C 21.788 72.912,22.103 73.206,22.296 73.206 C 22.489 73.206,22.646 73.311,22.646 73.438 C 22.646 73.731,24.740 75.839,25.030 75.839 C 25.148 75.839,25.320 76.076,25.411 76.366 C 25.503 76.656,25.698 76.893,25.845 76.893 C 25.991 76.893,26.569 77.396,27.129 78.012 C 27.688 78.627,28.360 79.347,28.622 79.610 C 29.068 80.059,29.106 81.121,29.230 96.332 C 29.302 105.265,29.463 112.781,29.587 113.035 C 29.867 113.607,30.437 113.633,30.648 113.083 C 30.768 112.772,30.927 83.259,30.828 79.816 C 30.815 79.363,29.589 77.962,26.483 74.854 C 24.104 72.472,21.873 70.090,21.526 69.561 L 20.894 68.598 20.852 59.534 C 20.829 54.549,20.745 50.264,20.665 50.012 C 20.435 49.288,19.804 49.208,19.356 49.846 M377.090 78.378 C 377.090 78.808,375.402 80.579,374.992 80.579 C 374.843 80.579,374.720 80.698,374.720 80.843 C 374.720 80.989,373.506 82.338,372.021 83.842 C 370.537 85.345,369.099 86.845,368.827 87.175 C 368.148 87.998,367.814 91.096,368.025 94.608 C 368.147 96.636,368.101 97.674,367.864 98.247 C 367.260 99.705,367.092 98.517,367.088 92.758 L 367.084 87.162 371.723 82.443 C 376.079 78.012,377.090 77.246,377.090 78.378 M368.122 172.425 C 368.090 174.701,368.074 176.860,368.087 177.222 C 368.100 177.584,368.117 178.365,368.124 178.958 C 368.138 180.244,368.088 180.180,372.882 185.021 C 375.499 187.664,376.564 188.917,376.564 189.353 C 376.564 189.831,376.493 189.897,376.248 189.651 C 376.074 189.477,375.767 189.335,375.565 189.335 C 375.134 189.335,371.824 186.094,371.824 185.673 C 371.824 185.515,371.696 185.385,371.540 185.385 C 371.218 185.385,369.190 183.348,369.190 183.024 C 369.190 182.908,368.954 182.751,368.665 182.676 C 368.376 182.600,368.062 182.320,367.967 182.053 C 367.871 181.785,367.612 181.355,367.390 181.097 C 366.962 180.599,366.811 169.015,367.216 167.739 L 367.397 167.169 367.788 167.728 C 368.101 168.175,368.168 169.120,368.122 172.425 M23.043 217.509 C 22.720 218.032,22.681 224.213,22.995 225.092 C 23.289 225.914,38.474 241.448,39.548 242.026 C 40.345 242.455,47.286 242.324,47.660 241.873 C 48.097 241.347,47.771 240.137,47.149 239.974 C 46.879 239.904,46.597 239.611,46.522 239.324 C 46.447 239.037,46.151 238.741,45.864 238.666 C 45.576 238.591,45.280 238.294,45.205 238.007 C 45.130 237.720,44.823 237.421,44.523 237.343 C 44.222 237.264,43.976 237.085,43.976 236.944 C 43.976 236.802,43.384 236.116,42.660 235.418 C 41.935 234.720,41.343 234.020,41.343 233.862 C 41.343 233.704,41.214 233.575,41.056 233.575 C 40.898 233.575,40.198 232.982,39.500 232.258 C 38.802 231.534,38.101 230.941,37.943 230.941 C 37.786 230.941,37.656 230.761,37.656 230.541 C 37.656 230.320,37.373 230.011,37.027 229.853 C 36.681 229.696,36.269 229.283,36.111 228.937 C 35.953 228.591,35.644 228.308,35.424 228.308 C 35.203 228.308,35.023 228.180,35.023 228.023 C 35.023 227.682,30.681 223.305,30.342 223.305 C 30.211 223.305,29.969 223.009,29.804 222.646 C 29.639 222.284,29.338 221.988,29.134 221.988 C 28.931 221.988,28.700 221.742,28.622 221.442 C 28.543 221.142,28.244 220.834,27.957 220.759 C 27.670 220.684,27.374 220.388,27.299 220.101 C 27.224 219.814,26.916 219.515,26.616 219.436 C 26.316 219.358,26.070 219.140,26.070 218.953 C 26.070 218.001,23.497 216.774,23.043 217.509 M24.267 218.104 C 25.023 218.501,47.400 240.810,47.400 241.167 C 47.400 241.627,46.593 241.738,43.254 241.738 L 39.942 241.738 36.677 238.512 C 29.367 231.289,24.094 225.903,23.784 225.345 C 23.485 224.808,23.257 217.775,23.538 217.775 C 23.594 217.775,23.922 217.923,24.267 218.104 M123.607 238.256 C 123.187 238.659,122.640 239.281,122.391 239.639 C 122.142 239.997,121.580 240.764,121.141 241.343 C 120.703 241.922,120.164 242.752,119.944 243.186 C 119.724 243.621,119.398 244.191,119.219 244.453 C 118.592 245.371,119.570 245.688,123.026 245.688 L 126.136 245.688 127.123 244.666 C 127.666 244.104,128.348 243.328,128.637 242.941 C 128.927 242.555,129.486 241.848,129.879 241.372 C 130.272 240.895,130.716 240.219,130.866 239.871 C 131.015 239.522,131.279 239.039,131.452 238.798 C 132.528 237.297,125.140 236.787,123.607 238.256 M136.142 237.715 C 135.570 237.932,133.772 239.920,133.772 240.336 C 133.772 240.531,133.535 240.893,133.246 241.141 C 132.956 241.389,132.719 241.729,132.719 241.898 C 132.719 242.066,132.423 242.398,132.061 242.635 C 131.575 242.954,131.402 243.298,131.402 243.950 C 131.402 246.595,138.842 246.011,139.703 243.299 C 139.856 242.818,140.297 242.253,141.644 240.816 C 142.537 239.863,142.780 238.383,142.119 237.920 C 141.553 237.524,137.057 237.370,136.142 237.715 M147.414 237.854 C 147.185 238.035,146.565 238.776,146.036 239.500 C 144.412 241.724,144.196 242.001,143.490 242.771 C 141.835 244.576,142.844 245.572,146.412 245.654 L 148.914 245.712 150.033 244.734 C 150.648 244.196,151.152 243.619,151.152 243.451 C 151.152 243.284,151.448 242.868,151.810 242.528 C 152.172 242.188,152.469 241.755,152.469 241.566 C 152.469 241.378,152.765 241.029,153.127 240.792 C 153.489 240.555,153.785 240.136,153.785 239.861 C 153.785 239.586,153.931 239.128,154.108 238.844 C 154.833 237.684,148.763 236.786,147.414 237.854 M158.773 238.117 C 157.036 240.081,156.682 240.522,156.682 240.724 C 156.682 240.953,156.216 241.540,155.168 242.630 C 154.482 243.344,154.362 244.920,154.956 245.413 C 156.353 246.572,162.110 245.164,162.711 243.515 C 162.856 243.117,163.092 242.791,163.235 242.791 C 163.378 242.791,163.645 242.377,163.828 241.870 C 164.011 241.363,164.247 240.948,164.353 240.948 C 164.766 240.948,165.372 240.089,165.372 239.503 C 165.372 239.163,165.520 238.824,165.701 238.749 C 165.927 238.655,165.835 238.441,165.409 238.068 C 164.438 237.219,159.535 237.255,158.773 238.117 M130.218 239.195 C 129.774 240.252,129.032 240.465,129.032 239.535 C 129.032 239.170,128.885 238.782,128.706 238.671 C 128.311 238.426,129.462 238.091,130.128 238.256 C 130.515 238.351,130.526 238.461,130.218 239.195 M141.622 239.028 C 141.680 239.625,141.545 240.009,141.161 240.337 C 140.863 240.593,140.619 240.925,140.619 241.075 C 140.619 241.225,140.382 241.496,140.092 241.677 C 139.803 241.858,139.566 242.164,139.566 242.358 C 139.566 243.045,137.766 244.597,136.870 244.683 C 133.582 245.000,131.084 244.214,132.252 243.231 C 132.453 243.061,133.026 242.350,133.524 241.650 C 135.996 238.180,136.197 238.058,139.302 238.130 L 141.540 238.183 141.622 239.028 M153.206 238.986 C 153.259 239.534,153.112 239.946,152.745 240.278 C 152.448 240.547,152.205 240.929,152.205 241.129 C 152.205 241.328,152.023 241.561,151.799 241.647 C 151.576 241.733,151.168 242.244,150.893 242.784 C 150.618 243.323,150.094 243.960,149.728 244.199 C 148.092 245.271,142.140 244.433,143.697 243.350 C 143.827 243.260,144.688 242.202,145.612 240.999 C 147.693 238.288,148.000 238.122,150.861 238.156 L 153.127 238.183 153.206 238.986 M164.794 239.018 C 164.852 239.614,164.699 240.019,164.247 240.463 C 163.901 240.802,163.194 241.735,162.676 242.536 C 161.546 244.283,161.064 244.548,158.638 244.759 C 154.948 245.079,154.583 244.410,156.838 241.463 C 157.766 240.250,158.525 239.179,158.525 239.083 C 158.525 238.516,160.370 238.070,162.475 238.129 L 164.714 238.191 164.794 239.018 M128.206 238.439 C 127.905 238.740,124.556 238.897,124.556 238.610 C 124.556 238.419,125.223 238.315,126.443 238.315 C 127.481 238.315,128.274 238.371,128.206 238.439 M123.885 239.612 C 124.090 239.944,123.481 241.229,123.200 241.056 C 122.935 240.892,122.899 239.796,123.151 239.544 C 123.398 239.297,123.708 239.325,123.885 239.612 M128.900 240.684 C 128.990 240.829,128.891 241.193,128.680 241.494 C 128.236 242.128,127.853 241.759,128.111 240.946 C 128.291 240.379,128.640 240.263,128.900 240.684 M176.673 241.043 C 176.408 241.274,174.325 241.401,174.325 241.186 C 174.325 241.055,174.878 240.948,175.554 240.948 C 176.230 240.948,176.734 240.991,176.673 241.043 M190.031 241.130 C 189.845 241.316,187.184 241.253,186.987 241.057 C 186.927 240.997,187.628 240.948,188.545 240.948 C 189.462 240.948,190.131 241.030,190.031 241.130 M195.360 241.068 C 195.154 241.274,193.313 241.327,193.119 241.133 C 193.017 241.031,193.507 240.948,194.207 240.948 C 194.907 240.948,195.426 241.002,195.360 241.068 M201.386 241.129 C 201.134 241.195,200.660 241.197,200.332 241.134 C 200.005 241.071,200.211 241.017,200.790 241.014 C 201.369 241.011,201.637 241.063,201.386 241.129 M207.044 241.562 C 206.712 243.195,204.345 243.568,204.345 241.988 C 204.345 241.510,204.191 241.220,203.908 241.165 C 203.667 241.118,204.300 241.060,205.315 241.036 C 207.078 240.994,207.155 241.017,207.044 241.562 M210.862 241.137 C 210.464 241.197,209.812 241.197,209.414 241.137 C 209.016 241.076,209.342 241.027,210.138 241.027 C 210.935 241.027,211.261 241.076,210.862 241.137 M122.354 242.395 C 122.121 243.003,121.679 242.641,121.851 241.984 C 121.945 241.622,122.081 241.528,122.256 241.703 C 122.401 241.848,122.445 242.159,122.354 242.395 M174.325 242.115 C 174.325 242.288,173.910 242.628,173.404 242.870 C 172.897 243.112,172.482 243.433,172.482 243.584 C 172.482 243.734,172.186 243.970,171.824 244.108 C 171.461 244.246,171.165 244.537,171.165 244.755 C 171.165 244.973,170.869 245.226,170.507 245.316 C 170.145 245.407,169.849 245.644,169.849 245.841 C 169.849 246.039,169.493 246.385,169.059 246.610 C 168.624 246.834,168.269 247.137,168.269 247.283 C 168.269 247.429,168.061 247.621,167.808 247.710 C 167.554 247.799,167.041 248.153,166.668 248.498 L 165.989 249.124 152.167 249.158 C 142.368 249.182,138.198 249.106,137.837 248.896 C 137.197 248.525,135.748 248.570,151.810 248.460 C 164.982 248.370,166.425 248.268,166.425 247.435 C 166.425 247.230,166.722 246.987,167.084 246.896 C 167.446 246.806,167.742 246.556,167.742 246.341 C 167.742 246.127,167.866 245.951,168.017 245.951 C 168.169 245.951,168.561 245.685,168.889 245.359 C 169.217 245.033,169.892 244.455,170.391 244.075 C 170.889 243.694,171.739 242.964,172.279 242.452 C 173.245 241.535,174.325 241.357,174.325 242.115 M23.315 242.210 C 22.454 243.071,30.667 251.922,32.014 251.585 C 32.365 251.496,32.653 251.383,32.653 251.333 C 32.653 249.934,24.023 241.502,23.315 242.210 M127.510 243.043 C 127.427 243.611,127.248 243.845,126.896 243.845 C 126.294 243.845,126.288 243.770,126.805 242.770 C 127.301 241.811,127.670 241.954,127.510 243.043 M203.080 243.264 C 203.780 243.964,202.578 244.100,195.632 244.104 L 188.630 244.108 186.020 246.692 C 184.585 248.112,183.232 249.361,183.015 249.467 C 182.798 249.572,182.348 249.816,182.015 250.008 C 181.433 250.344,170.374 250.358,169.832 250.023 C 169.722 249.955,169.042 250.036,168.320 250.203 C 166.013 250.735,165.884 250.374,167.744 248.582 C 168.645 247.715,169.480 247.005,169.600 247.005 C 169.720 247.005,169.974 246.786,170.163 246.520 C 170.352 246.253,170.774 245.893,171.099 245.720 C 171.425 245.548,171.692 245.233,171.692 245.020 C 171.692 244.808,171.860 244.635,172.065 244.635 C 172.270 244.635,172.675 244.309,172.965 243.910 L 173.492 243.186 180.953 243.055 C 194.665 242.813,202.704 242.889,203.080 243.264 M121.499 243.471 C 121.798 244.250,121.660 244.836,121.148 244.970 C 120.495 245.141,120.342 244.977,120.342 244.108 C 120.342 243.039,121.161 242.589,121.499 243.471 "
                stroke="none" fill="#045a7b" fill-rule="evenodd" style="fill: rgb(0, 112, 119);" />
            <path id="path1"
                d="M56.100 16.376 C 55.804 16.693,55.559 17.078,55.555 17.232 C 55.543 17.683,25.232 47.751,24.294 48.242 L 23.440 48.690 23.460 54.122 C 23.479 59.274,23.504 59.533,23.940 59.139 C 24.193 58.910,24.479 58.723,24.577 58.723 C 24.866 58.723,27.732 55.748,28.108 55.057 C 28.344 54.624,28.403 53.946,28.293 52.950 C 28.041 50.670,28.717 49.758,36.105 42.422 C 36.337 42.190,38.411 40.142,40.713 37.870 C 43.015 35.597,46.161 32.457,47.704 30.891 C 49.247 29.326,51.262 27.319,52.180 26.432 C 53.099 25.545,54.457 24.177,55.198 23.391 C 55.939 22.606,56.926 21.643,57.391 21.251 L 58.237 20.540 108.315 20.542 C 164.389 20.544,158.781 20.340,160.609 22.440 C 161.450 23.406,164.198 26.144,167.421 29.227 L 169.076 30.810 192.833 30.807 L 216.590 30.805 218.356 29.030 C 220.584 26.791,220.935 26.407,220.935 26.217 C 220.935 26.132,209.501 26.068,195.526 26.074 C 173.122 26.084,170.046 26.037,169.522 25.681 C 169.195 25.459,167.037 23.382,164.726 21.066 C 160.669 16.997,160.489 16.853,159.449 16.853 C 158.858 16.853,157.909 16.616,157.340 16.327 C 156.318 15.805,155.787 15.800,106.472 15.800 L 56.637 15.800 56.100 16.376 M242.446 17.855 C 242.056 18.261,241.738 18.734,241.738 18.906 C 241.738 19.078,241.501 19.367,241.211 19.548 C 240.922 19.729,240.685 19.974,240.685 20.094 C 240.685 20.214,240.388 20.700,240.026 21.175 C 238.986 22.539,239.107 22.646,241.692 22.646 C 244.003 22.646,245.161 22.160,245.161 21.190 C 245.161 21.060,245.401 20.712,245.694 20.417 C 248.380 17.714,248.341 17.117,245.474 17.117 C 243.275 17.117,243.116 17.155,242.446 17.855 M253.588 17.344 C 253.588 17.552,253.027 18.345,251.430 20.397 C 250.865 21.122,250.165 22.311,250.165 22.545 C 250.165 22.601,251.261 22.641,252.600 22.634 L 255.036 22.622 255.772 21.647 C 256.176 21.110,256.853 20.217,257.275 19.661 C 257.698 19.105,258.116 18.424,258.204 18.147 C 258.291 17.870,258.474 17.643,258.609 17.643 C 258.744 17.643,258.855 17.525,258.855 17.380 C 258.855 17.222,257.801 17.117,256.221 17.117 C 254.773 17.117,253.588 17.219,253.588 17.344 M349.698 26.648 C 349.991 26.921,350.230 27.260,350.230 27.402 C 350.230 27.545,350.527 27.796,350.889 27.961 C 351.251 28.126,351.547 28.420,351.547 28.614 C 351.547 28.808,351.671 28.966,351.822 28.966 C 351.974 28.966,352.402 29.271,352.774 29.643 C 353.869 30.738,354.413 30.810,361.628 30.810 L 368.515 30.810 373.044 35.352 L 377.572 39.895 377.764 42.528 C 377.869 43.976,377.884 47.330,377.797 49.981 L 377.638 54.801 379.648 56.904 C 382.557 59.949,382.428 60.321,382.461 48.800 C 382.491 38.332,382.476 38.199,381.170 37.392 C 380.448 36.946,376.199 32.777,371.626 28.029 C 371.445 27.841,371.297 27.392,371.297 27.031 C 371.297 26.084,371.100 26.069,359.508 26.113 C 349.369 26.152,349.177 26.162,349.698 26.648 M23.552 199.934 L 23.585 210.533 28.536 215.537 C 31.260 218.288,33.596 220.718,33.729 220.935 C 34.248 221.786,34.513 220.557,34.439 217.641 L 34.365 214.742 31.697 212.111 C 27.983 208.449,28.198 209.146,28.222 200.871 C 28.234 196.529,28.138 193.708,27.969 193.394 C 27.641 192.788,24.038 189.335,23.734 189.335 C 23.616 189.335,23.534 194.105,23.552 199.934 M379.929 200.153 C 377.608 202.563,377.765 201.478,377.833 214.593 C 377.894 226.453,377.724 228.835,376.816 228.835 C 376.689 228.835,376.136 229.327,375.587 229.929 C 375.038 230.530,374.190 231.390,373.703 231.838 C 373.215 232.286,371.897 233.571,370.772 234.694 L 368.727 236.735 330.500 236.735 L 292.272 236.735 291.662 237.393 C 291.327 237.755,290.918 238.051,290.753 238.051 C 290.589 238.051,290.453 238.199,290.452 238.381 C 290.451 238.562,289.808 239.238,289.023 239.884 C 288.238 240.530,287.653 241.152,287.724 241.267 C 287.794 241.381,306.455 241.475,329.192 241.475 L 370.531 241.475 370.980 240.634 C 371.541 239.583,381.216 229.888,381.704 229.888 C 382.349 229.888,382.367 229.543,382.510 214.492 C 382.681 196.472,382.806 197.165,379.929 200.153 M24.326 219.476 C 23.411 221.860,24.717 226.603,26.531 227.483 C 26.856 227.641,27.123 227.907,27.123 228.074 C 27.123 228.337,27.466 228.694,29.286 230.323 C 29.472 230.490,30.647 231.675,31.896 232.957 C 33.144 234.238,34.566 235.653,35.055 236.102 C 35.545 236.550,36.386 237.379,36.925 237.945 C 40.094 241.268,39.719 241.062,42.880 241.219 C 44.424 241.296,45.955 241.311,46.280 241.254 C 46.943 241.138,47.096 240.685,46.472 240.685 C 46.252 240.685,45.937 240.388,45.772 240.026 C 45.607 239.664,45.370 239.368,45.245 239.368 C 45.121 239.368,43.713 238.035,42.117 236.406 C 40.521 234.776,39.131 233.358,39.028 233.254 C 38.926 233.150,37.804 232.055,36.537 230.820 C 35.270 229.585,34.233 228.455,34.233 228.309 C 34.233 228.164,34.124 228.045,33.991 228.045 C 33.645 228.045,31.600 226.035,31.600 225.695 C 31.600 225.539,31.481 225.411,31.336 225.411 C 31.000 225.411,25.280 219.679,25.280 219.343 C 25.280 218.942,24.488 219.052,24.326 219.476 M114.974 229.603 C 113.550 230.558,103.260 241.070,103.562 241.262 C 103.739 241.375,104.916 241.468,106.178 241.471 L 108.471 241.475 112.366 237.535 C 115.995 233.864,118.005 232.379,118.574 232.947 C 118.641 233.015,123.125 233.055,128.538 233.037 C 161.198 232.930,206.866 233.094,207.092 233.320 C 207.232 233.460,207.455 233.575,207.586 233.575 C 207.718 233.575,209.049 234.789,210.544 236.274 C 212.039 237.758,213.448 239.126,213.675 239.313 C 213.902 239.499,214.088 239.878,214.088 240.153 C 214.088 241.125,215.074 241.475,217.812 241.475 C 221.301 241.475,221.439 241.392,220.073 240.132 C 217.797 238.032,215.932 236.135,215.932 235.921 C 215.932 235.799,215.683 235.567,215.379 235.404 C 215.076 235.242,214.513 234.751,214.128 234.313 C 213.020 233.052,211.154 231.227,209.969 230.247 L 208.879 229.345 162.205 229.287 C 122.294 229.238,115.451 229.284,114.974 229.603 M136.727 239.050 C 136.397 239.152,135.720 239.770,135.223 240.421 C 133.509 242.666,133.376 242.835,133.065 243.172 C 131.900 244.434,136.969 244.557,138.229 243.298 C 138.674 242.852,139.039 242.378,139.039 242.244 C 139.039 242.111,139.246 241.792,139.500 241.536 C 140.381 240.647,140.942 239.586,140.674 239.318 C 140.349 238.993,137.526 238.801,136.727 239.050 M148.255 239.046 C 147.756 239.209,145.885 241.227,145.885 241.603 C 145.885 241.758,145.678 242.080,145.425 242.319 C 143.908 243.751,144.209 244.108,146.933 244.108 C 149.218 244.108,149.943 243.755,150.525 242.362 C 150.729 241.874,151.001 241.475,151.130 241.475 C 151.539 241.475,152.518 239.575,152.247 239.305 C 151.977 239.035,148.901 238.835,148.255 239.046 M159.645 239.014 C 159.319 239.084,159.052 239.230,159.052 239.339 C 159.052 239.448,158.697 239.935,158.262 240.421 C 157.828 240.908,157.472 241.433,157.472 241.589 C 157.472 241.744,157.113 242.210,156.674 242.624 C 155.506 243.727,155.962 244.108,158.451 244.108 C 160.604 244.108,161.745 243.591,162.101 242.455 C 162.202 242.133,162.535 241.606,162.841 241.284 C 164.612 239.417,164.697 239.105,163.434 239.105 C 162.947 239.105,162.029 239.056,161.393 238.996 C 160.757 238.936,159.970 238.944,159.645 239.014 "
                stroke="none" fill="#b7deec" fill-rule="evenodd"/>
        </g>
        </svg>